<svg width="150" height="150" version="1.1" xmlns="http://www.w3.org/2000/svg"><g stroke="none" stroke-width="1" fill="none" fill-rule="evenodd"><g><circle fill="#C17134" cx="75" cy="75" r="75"/><g><path d="M39.688 31.162l6.36 8.454a6.3 6.3 0 0 1 1.24 3.218l6.809 75.03a3.111 3.111 0 0 1-5.188 2.587l-15.24-18.68a6.3 6.3 0 0 1-1.419-3.983v-64.14a4.134 4.134 0 0 1 7.438-2.486z" fill="#548213"/><g transform="translate(48.478 36.131)"><path d="M5 5.746h59.647a5 5 0 0 1 5 5V81.87a5 5 0 0 1-5 5H5a5 5 0 0 1-5-5V10.746a5 5 0 0 1 5-5z" fill="#548213"/><path d="M6.762 0h54.77a4.733 4.733 0 0 1 4.734 4.732V78.08a4.733 4.733 0 0 1-4.734 4.733H4.733a2.704 2.704 0 0 1-2.704-2.705V4.732A4.733 4.733 0 0 1 6.762 0z" fill="#E7E7E7"/><path d="M6.762 0h54.77a4.733 4.733 0 0 1 4.734 4.732v65.236a4.733 4.733 0 0 1-4.734 4.732H6.762a4.733 4.733 0 0 1-4.733-4.732V4.732A4.733 4.733 0 0 1 6.762 0z" fill="#FFF"/><rect fill="#D8D8D8" x="9.467" y="9.802" width="48.347" height="2.704" rx="1.352"/><rect fill="#D8D8D8" x="9.467" y="15.886" width="38.88" height="2.704" rx="1.352"/><rect fill="#D8D8D8" x="9.467" y="21.971" width="44.966" height="2.704" rx="1.352"/><rect fill="#D8D8D8" x="9.467" y="58.476" width="44.966" height="2.704" rx="1.352"/><rect fill="#D8D8D8" x="9.467" y="28.055" width="44.966" height="2.704" rx="1.352"/><rect fill="#D8D8D8" x="9.467" y="46.307" width="44.966" height="2.704" rx="1.352"/><rect fill="#D8D8D8" x="9.467" y="34.139" width="44.966" height="2.704" rx="1.352"/><rect fill="#D8D8D8" x="9.467" y="52.392" width="35.838" height="2.704" rx="1.352"/><rect fill="#D8D8D8" x="9.467" y="64.56" width="35.838" height="2.704" rx="1.352"/></g><path d="M37.1 45.949l7.858-19.958 6.68 11.756c.145.254.221.542.221.835v79.199a.338.338 0 0 1-.603.21l-14.273-17.98V46.568c0-.212.04-.422.118-.62z" fill="#E7E7E7"/><path d="M34.786 23.625c1.4 0 2.535 1.135 2.535 2.536V99.17a2.536 2.536 0 0 1-5.071 0V26.16c0-1.4 1.135-2.535 2.536-2.535z" fill="#88BC3F"/><path d="M39.012 25.315h4.395c.934 0 1.69.757 1.69 1.69V99.34a1.69 1.69 0 0 1-1.69 1.69h-4.395a1.69 1.69 0 0 1-1.69-1.69V27.005c0-.933.756-1.69 1.69-1.69z" fill="#FFF"/></g></g></g></svg>