<svg width="106" height="89" viewBox="0 0 106 89" version="1.1" xmlns="http://www.w3.org/2000/svg" xmlns:xlink="http://www.w3.org/1999/xlink"><defs><path d="M4.006 14.41l26.214 9.163a3.3 3.3 0 0 0 3.793-1.223L49.333.454a3.3 3.3 0 0 1 5.407 0L70.06 22.35a3.3 3.3 0 0 0 3.793 1.223l26.213-9.163a3.3 3.3 0 0 1 4.323 3.771L91.023 84.082a3.3 3.3 0 0 1-3.234 2.644H16.284a3.3 3.3 0 0 1-3.234-2.644l-13.367-65.9a3.3 3.3 0 0 1 4.323-3.772z" id="a"/></defs><g stroke="none" stroke-width="1" fill="none" fill-rule="evenodd"><g><g><g><g><g transform="translate(1 1)"><g><mask id="b" fill="#fff"><use xlink:href="#a"/></mask><use fill="#FFC010" xlink:href="#a"/><path fill="#FFD72A" opacity=".7" mask="url(#b)" d="M29.913-.313L52.46-1.637v99.762H29.913z"/><path fill="#FFB600" opacity=".7" mask="url(#b)" d="M78.375-1.288l28.738.635-6.19 97.802-31.036-3.752z"/></g><rect fill="#FFB600" x="8.8" y="77" width="88" height="11" rx="5.5"/><rect fill="#FFD72A" x="28.738" y="79.681" width="23.513" height="3.919" rx="1.959"/><rect fill="#FFD72A" x="83.6" y="79.681" width="9.144" height="3.919" rx="1.959"/></g></g></g></g></g></g></svg>