<svg width="150" height="150" version="1.1" xmlns="http://www.w3.org/2000/svg" xmlns:xlink="http://www.w3.org/1999/xlink"><defs><linearGradient x1="36.109%" y1="71.775%" x2="36.109%" y2="-42.271%" id="b"><stop stop-color="#91EBE6" offset="0%"/><stop stop-color="#21ADF4" offset="100%"/></linearGradient><circle id="a" cx="75" cy="75" r="75"/><linearGradient x1="26.9%" y1="29.997%" x2="26.9%" y2=".003%"><stop stop-color="#B3F6E3" offset="0%"/><stop stop-color="#3CCFFF" offset="100%"/></linearGradient><path d="M8.424 9.368h4.291c4.292 0 7.788-3.493 7.788-7.78V0H.636v1.588c0 4.287 3.496 7.78 7.788 7.78z" id="d"/></defs><g stroke="none" stroke-width="1" fill="none" fill-rule="evenodd"><g><mask id="c" fill="#fff"><use xlink:href="#a"/></mask><use fill="url(#b)" xlink:href="#a"/><g mask="url(#c)"><g><g opacity=".9" stroke-width="1" fill="none" fill-rule="nonzero"><path fill="#C6C6C6" d="M-22.894 32.54h93.377v60.972h-93.377z"/><path fill="#C6C6C6" d="M6.748 64.534h34.093v27.39H6.748z"/><path d="M-33.94 36.113L22.483 1.657c.318-.159.557-.159.875 0L79.78 36.113c.716.397.399 1.588-.397 1.588H-33.384c-1.033 0-1.272-1.191-.556-1.588z" fill="#DDD"/><path d="M-10.02 29.603L22.801 9.596a.384.384 0 0 1 .557 0l32.741 20.007c.398.317.318.873-.318.873H-9.702c-.477.159-.715-.556-.318-.873z" fill="#C6C6C6"/><path fill="#DDD" d="M-.007 35.32h14.384v50.412H-.007z"/><path fill="#C6C6C6" opacity=".2" d="M-.007 40.4h14.384v5.478H-.007z"/><path d="M15.331 43.179h-16.37c-1.431 0-2.782-1.191-2.782-2.78v-.158c0-1.429 1.192-2.779 2.781-2.779h16.371c1.43 0 2.782 1.191 2.782 2.779v.159c0 1.667-1.272 2.779-2.782 2.779zm0 47.316h-16.37c-1.431 0-2.782-1.19-2.782-2.778v-.159c0-1.43 1.192-2.779 2.781-2.779h16.371c1.43 0 2.782 1.191 2.782 2.779v.159c0 1.667-1.272 2.778-2.782 2.778z" fill="#E6E7E8"/><path fill="#DDD" d="M32.179 35.32h14.384v50.412H32.179z"/><path fill="#C6C6C6" opacity=".2" d="M32.179 40.4h14.384v5.478H32.179z"/><path fill="#DDD" d="M62.616 35.32H77v50.412H62.616z"/><path fill="#C6C6C6" opacity=".2" d="M62.616 40.4H77v5.478H62.616z"/><path d="M47.596 43.179h-16.45c-1.43 0-2.782-1.191-2.782-2.78v-.158c0-1.429 1.192-2.779 2.782-2.779h16.45c1.43 0 2.781 1.191 2.781 2.779v.159c-.238 1.667-1.35 2.779-2.781 2.779zm0 47.316h-16.45c-1.43 0-2.782-1.19-2.782-2.778v-.159c0-1.43 1.192-2.779 2.782-2.779h16.45c1.43 0 2.781 1.191 2.781 2.779v.159c-.238 1.667-1.35 2.778-2.781 2.778z" fill="#E6E7E8"/><path fill="#D3D3D3" d="M-42.523 96.767H88.762v5.954H-42.523z"/><path d="M78.033 43.179h-16.37c-1.431 0-2.782-1.191-2.782-2.78v-.158c0-1.429 1.192-2.779 2.781-2.779h16.371c1.43 0 2.782 1.191 2.782 2.779v.159c-.16 1.667-1.351 2.779-2.782 2.779zm0 47.316h-16.37c-1.431 0-2.782-1.19-2.782-2.778v-.159c0-1.43 1.192-2.779 2.781-2.779h16.371c1.43 0 2.782 1.191 2.782 2.779v.159c-.16 1.667-1.351 2.778-2.782 2.778z" fill="#E6E7E8"/><path fill="#DDD" d="M-38.55 90.495H84.867v6.192H-38.55z"/></g><path fill="#969696" fill-rule="nonzero" d="M-28.911 190.287v-87.684h225.39v87.684z"/><g stroke-width="1" fill="none" fill-rule="evenodd"><path d="M50.553 96.646a6.912 6.912 0 0 0 9.774 0L80.91 76.084a6.895 6.895 0 0 0 0-9.766 6.912 6.912 0 0 0-9.775 0L50.553 86.881a6.895 6.895 0 0 0 0 9.765zm84.105 0a6.912 6.912 0 0 1-9.774 0L104.3 76.084a6.895 6.895 0 0 1 0-9.766 6.912 6.912 0 0 1 9.775 0l20.582 20.563a6.895 6.895 0 0 1 0 9.765z" fill="#754C28" fill-rule="nonzero"/><path d="M114.45 131.461V81.048c0-11.83-9.616-21.515-21.536-21.515-11.841 0-21.537 9.606-21.537 21.515v50.413h43.073z" fill="#754C28" fill-rule="nonzero"/><path d="M98.636 88.431H95.06L67.642 60.883c6.12-7.066 15.1-11.512 25.192-11.512" fill="#D3A272" fill-rule="nonzero"/><path d="M88.94 83.033l1.272-13.417c7.788 0 14.781 3.572 19.39 9.13l-10.49 12.146h-4.45l-5.722-7.86z" fill="#D3A272" fill-rule="nonzero"/><path d="M92.755 49.292c10.252 0 19.47 4.684 25.59 11.988l-27.1 27.072h-3.576" fill="#D3A272" fill-rule="nonzero"/><path d="M86.795 90.892L75.987 78.35a25.249 25.249 0 0 1 19.152-8.733l-2.781 8.733 3.417 4.604-.715 7.86h-8.265v.08z" fill="#D3A272" fill-rule="nonzero"/><path d="M86.238 131.461V62.867c0-3.413 2.543-6.43 5.96-6.827 4.054-.477 7.47 2.7 7.47 6.669v68.752h-13.43z" fill="#EFEFEF" fill-rule="nonzero"/><path d="M110.238 119.87v69.15H95.457v-54.383a2.51 2.51 0 0 0-2.543-2.54 2.51 2.51 0 0 0-2.543 2.54v54.382H75.589V119.87h34.65z" fill="#1E6BA5" fill-rule="nonzero"/><path d="M84.57 121.06c0 5.003-4.053 9.051-9.06 9.051v-9.05h9.06zm25.668 9.051c-5.006 0-9.06-4.048-9.06-9.05h9.06v9.05z" fill="#1E6BA5" fill-rule="nonzero"/><path d="M75.59 121.14h34.49a.881.881 0 0 0 .874-.873v-4.843a.881.881 0 0 0-.875-.873H75.59a.881.881 0 0 0-.874.873v4.843c-.08.476.318.873.874.873z" fill="#303030" fill-rule="nonzero"/><path d="M90.45 115.702c-.125 0-.198.07-.198.198v4.129c0 .087.111.198.198.198h4.927c.088 0 .2-.111.2-.198V115.9c0-.087-.112-.198-.2-.198H90.45zm0-1.985h4.927c1.185 0 2.186 1 2.186 2.183v4.129c0 1.183-1.001 2.183-2.186 2.183H90.45c-1.184 0-2.185-1-2.185-2.183V115.9c0-1.246.983-2.183 2.185-2.183z" fill="#B2B2B2" fill-rule="nonzero"/><path d="M86.08 90.337l-14.623 7.145v40.33h2.384a12.272 12.272 0 0 0 12.318-12.305v-35.17h-.08zm13.51 0l14.86 7.145v40.33h-2.463c-6.835 0-12.398-5.557-12.398-12.385v-35.09z" fill="#754C28" fill-rule="nonzero"/><path d="M92.834 53.976c4.053 0 7.391 3.255 7.391 7.224v8.654c0 3.97-3.338 7.224-7.39 7.224-4.054 0-7.391-3.255-7.391-7.224V61.2c0-3.97 3.337-7.224 7.39-7.224z" fill="#FF9D8A" fill-rule="nonzero"/><g transform="translate(73.285 23.093)"><ellipse fill="#303030" fill-rule="nonzero" cx="4.291" cy="26.913" rx="3.974" ry="3.97"/><ellipse fill="#303030" fill-rule="nonzero" cx="19.47" cy="4.922" rx="4.848" ry="4.843"/><ellipse fill="#303030" fill-rule="nonzero" cx="34.411" cy="26.913" rx="3.974" ry="3.97"/><path d="M16.053 47.476h6.675c7.47 0 13.59-6.113 13.59-13.576V21.832c0-9.368-7.55-16.91-16.927-16.91-9.378 0-16.927 7.542-16.927 16.91V33.9c0 7.542 6.04 13.576 13.589 13.576z" fill="#3D3D3D" fill-rule="nonzero"/><path d="M23.841 22.865v.397a3.221 3.221 0 0 0 3.258 3.255h1.908a3.221 3.221 0 0 0 3.258-3.255v-.397a3.221 3.221 0 0 0-3.258-3.255h-1.908c-1.748 0-3.258 1.429-3.258 3.255z" fill="#FFB5A1" fill-rule="nonzero"/><ellipse fill="#FFF" fill-rule="nonzero" cx="28.053" cy="22.706" rx="2.146" ry="2.144"/><path d="M6.437 22.865v.397a3.221 3.221 0 0 0 3.258 3.255h1.908a3.221 3.221 0 0 0 3.258-3.255v-.397a3.221 3.221 0 0 0-3.258-3.255H9.695c-1.748 0-3.258 1.429-3.258 3.255z" fill="#FFB5A1" fill-rule="nonzero"/><g><g><g transform="translate(8.742 30.962)"><mask id="e" fill="#fff"><use xlink:href="#d"/></mask><use fill="#B2473B" fill-rule="nonzero" xlink:href="#d"/><ellipse fill="#CC4F46" fill-rule="nonzero" mask="url(#e)" cx="10.252" cy="10.956" rx="5.325" ry="5.319"/><path d="M4.768 3.89h11.603c1.51 0 2.781-1.27 2.781-2.779V-.635H1.907V1.11c.08 1.588 1.351 2.78 2.861 2.78z" fill="#FFF" fill-rule="nonzero" mask="url(#e)"/></g></g><path d="M22.331 36.679a1.797 1.797 0 0 0 1.828-1.826v-.08a1.797 1.797 0 0 0-1.828-1.826 1.797 1.797 0 0 0-1.828 1.826v.08c0 1.032.874 1.826 1.828 1.826z" fill="#B2473B" fill-rule="nonzero"/></g><ellipse fill="#FFF" fill-rule="nonzero" cx="10.728" cy="22.706" rx="2.146" ry="2.144"/><path d="M17.483 28.263h3.736c.556 0 .953-.397.953-.953v-5.795c0-.556-.397-.953-.953-.953h-3.736c-.556 0-.953.397-.953.953v5.795c0 .556.397.953.953.953z" fill="#4C4C4C" fill-rule="nonzero"/><path d="M15.497 16.513c0 .556.477 1.032 1.033 1.032h5.563c.556 0 1.033-.476 1.033-1.032 0-.555-.477-1.032-1.033-1.032H16.53c-.556 0-1.033.477-1.033 1.032zm-2.225-3.89a1.05 1.05 0 0 0 1.033 1.032h10.092c.557 0 1.033-.476 1.033-1.032s-.476-1.032-1.033-1.032H14.305a1.05 1.05 0 0 0-1.033 1.032z" fill="#303030" fill-rule="nonzero"/><path fill="#FFB5A1" fill-rule="nonzero" d="M30.797 25.645h-5.483v-1.667h5.483zm-17.36 0H7.954v-1.667h5.483z"/></g><g fill-rule="nonzero"><g><path d="M69.614 100.06l4.212-5.24.238-.238a2.57 2.57 0 0 0 .16-3.494c-.557-.635-1.352-.952-2.147-.873a2.763 2.763 0 0 0-1.748.953l-4.212 5.24-.238.238a2.57 2.57 0 0 0-.16 3.493c.557.635 1.352.953 2.146.873a2.73 2.73 0 0 0 1.749-.952z" fill="#FF9D8A"/><path d="M50.553 86.96a6.895 6.895 0 0 0 0 9.765l9.298 9.289a6.912 6.912 0 0 0 9.774 0 6.895 6.895 0 0 0 0-9.765l-9.298-9.289a6.912 6.912 0 0 0-9.774 0z" fill="#754C28"/><path d="M67.707 101.33v-1.032c0-.794.715-1.509 1.51-1.509h6.913c1.113 0 1.987.874 1.987 1.985a1.966 1.966 0 0 1-1.987 1.985h-6.914c-.874.08-1.51-.556-1.51-1.43zm0-5.081v-1.032c0-.794.715-1.509 1.51-1.509h6.913c1.113 0 1.987.874 1.987 1.985a1.966 1.966 0 0 1-1.987 1.985h-6.914c-.874.08-1.51-.635-1.51-1.43zm0 10.161v-1.031c0-.794.715-1.509 1.51-1.509h6.913c1.113 0 1.987.874 1.987 1.985a1.966 1.966 0 0 1-1.987 1.985h-6.914c-.874.08-1.51-.556-1.51-1.43z" fill="#FFB5A1"/><path d="M72.236 107.92h-3.258c-3.894 0-7.152-3.176-7.152-7.146 0-3.89 3.179-7.145 7.152-7.145h3.258" fill="#FFB5A1"/></g><g><path d="M116.698 100.06l-4.212-5.24-.238-.238a2.57 2.57 0 0 1-.16-3.494c.557-.635 1.352-.952 2.147-.873.635.08 1.271.397 1.748.953l4.212 5.24.238.238a2.57 2.57 0 0 1 .16 3.493c-.557.635-1.352.953-2.147.873a2.73 2.73 0 0 1-1.748-.952z" fill="#FF9D8A"/><path d="M134.658 86.96a6.895 6.895 0 0 1 0 9.765l-9.298 9.289a6.912 6.912 0 0 1-9.774 0 6.895 6.895 0 0 1 0-9.765l9.298-9.289a6.912 6.912 0 0 1 9.774 0z" fill="#754C28"/><path d="M118.605 101.33v-1.032c0-.794-.715-1.509-1.51-1.509h-6.913a1.966 1.966 0 0 0-1.987 1.985c0 1.112.874 1.985 1.987 1.985h6.913c.875.08 1.51-.556 1.51-1.43zm0-5.081v-1.032c0-.794-.715-1.509-1.51-1.509h-6.913a1.966 1.966 0 0 0-1.987 1.985c0 1.112.874 1.985 1.987 1.985h6.913c.875.08 1.51-.635 1.51-1.43zm0 10.161v-1.031c0-.794-.715-1.509-1.51-1.509h-6.913a1.966 1.966 0 0 0-1.987 1.985c0 1.112.874 1.985 1.987 1.985h6.913c.875.08 1.51-.556 1.51-1.43z" fill="#FFB5A1"/><path d="M114.076 107.92h3.258c3.894 0 7.152-3.176 7.152-7.146 0-3.89-3.179-7.145-7.152-7.145h-3.258" fill="#FFB5A1"/></g></g></g></g></g></g></g></svg>