<svg xmlns="http://www.w3.org/2000/svg" xmlns:xlink="http://www.w3.org/1999/xlink" width="150" height="150"><defs><rect id="a" width="150" height="150" rx="75"/></defs><g fill="none" fill-rule="evenodd"><mask id="b" fill="#fff"><use xlink:href="#a"/></mask><use fill="#D38F62" xlink:href="#a"/><g mask="url(#b)"><g transform="translate(27.515 7.988)"><g><path fill="#70AF0C" d="M46.335 87.12l2.77-.54-12.382-63.696-2.77.538z"/><path fill="#D33131" d="M31.699 9.927l.138-.027 1.935-.376 12.807-2.49c.699 3.596-1.596 7.037-5.051 7.709l-.139.027-7.279 1.415-7.509 1.46c-.69-3.55 1.596-7.038 5.098-7.718z"/><path fill="#F43D3D" d="M35.535 11.103l-.139.027-1.939.377-12.835 2.495c.7 3.595 4.123 5.925 7.585 5.252l.139-.027 7.248-1.409 7.526-1.463c-.644-3.557-4.076-5.934-7.585-5.252z"/><path fill="#D33131" d="M48.03 12.037l2.113 10.868c1.567 8.058-3.698 15.867-11.706 17.424-8.008 1.556-15.814-3.712-17.372-11.724L18.944 17.69"/><path fill="#70AF0C" d="M42.933 54.83l5.112 1.649-4.122 3.445z"/><path fill="#F43D3D" d="M18.944 17.691l2.116 10.887c1.56 8.027 9.436 13.294 17.47 11.733a15.17 15.17 0 0 0 4.168-1.48l-.17-.877c-2.26-11.625-12.232-19.788-23.584-20.263z"/><path fill="#F43D3D" d="M48.492 11.948l2.117 10.887c1.56 8.026-3.739 15.854-11.792 17.42a15.24 15.24 0 0 1-4.43.19l-.17-.876c-2.26-11.625 3.901-22.924 14.275-27.621z"/></g><g><path fill="#BF2626" d="M68.608 7.239l.124.066 1.74.925 11.52 6.126c-1.72 3.234-5.669 4.464-8.776 2.811l-.125-.066-6.547-3.48-6.754-3.592c1.697-3.192 5.669-4.465 8.818-2.79z"/><path fill="#D33131" d="M70.85 10.567l-.126-.066-1.744-.927-11.544-6.139c-1.72 3.235-.526 7.2 2.589 8.856l.125.066 6.52 3.466 6.768 3.6c1.739-3.17.567-7.178-2.589-8.856z"/><path fill="#BF2626" d="M79.972 19.157l-5.197 9.775c-3.854 7.249-12.86 10.004-20.063 6.175-7.203-3.83-9.954-12.837-6.122-20.044l5.22-9.817"/><path fill="#70AF0C" d="M49.08 49.206l2.935 4.498-5.37.083z"/><path fill="#D33131" d="M53.81 5.246l-5.207 9.793c-3.84 7.22-1.034 16.27 6.192 20.112a15.17 15.17 0 0 0 4.171 1.472l.42-.788c5.56-10.457 2.947-23.076-5.577-30.589z"/><path fill="#D33131" d="M80.387 19.378l-5.206 9.793c-3.84 7.22-12.884 9.969-20.127 6.117a15.24 15.24 0 0 1-3.563-2.64l.42-.788c5.56-10.456 17.458-15.36 28.476-12.482z"/></g><g><path fill="#70AF0C" d="M52.694 82.644l1.941 1.628 22.862-30.88-1.94-1.629z"/><path fill="#D33131" d="M83.728 42.531l.096.081 1.356 1.138 8.975 7.53c-2.122 2.53-5.826 2.88-8.247.848l-.097-.082-5.101-4.28-5.262-4.415c2.094-2.496 5.826-2.879 8.28-.82z"/><path fill="#F43D3D" d="M85.07 45.877l-.096-.081-1.36-1.14-8.993-7.547c-2.122 2.528-1.819 6.24.608 8.277l.097.081 5.079 4.262 5.273 4.425c2.127-2.468 1.852-6.214-.607-8.277z"/><path fill="#D33131" d="M91.474 55.133l-6.413 7.642c-4.755 5.667-13.193 6.422-18.804 1.714-5.612-4.71-6.333-13.15-1.606-18.784l6.44-7.675"/><path fill="#70AF0C" d="M60.034 70.918l-1.732-4.505 4.737.924z"/><path fill="#F43D3D" d="M71.09 38.03l-6.423 7.656c-4.736 5.645-3.975 14.133 1.654 18.857a13.578 13.578 0 0 0 3.39 2.07l.518-.616c6.859-8.175 6.94-19.77.862-27.967z"/><path fill="#F43D3D" d="M91.797 55.405l-6.424 7.656c-4.736 5.644-13.207 6.386-18.85 1.65a13.642 13.642 0 0 1-2.635-2.984c.163-.195.326-.39.517-.616 6.86-8.175 18.246-10.285 27.392-5.706z"/></g><g><path fill="#70AF0C" d="M58.446 81.013l2.423-.74L47.423 44.28l-2.424.74z"/><path fill="#F43D3D" d="M41.707 33.14l.12-.038 1.693-.517 11.204-3.426c.965 3.157-.759 6.455-3.781 7.379l-.121.037-6.368 1.946-6.57 2.009c-.952-3.115.76-6.454 3.823-7.39z"/><path fill="#D33131" d="M45.245 33.835l-.121.037-1.697.519L32.2 37.824c.966 3.156 4.244 4.924 7.273 3.998l.121-.037 6.341-1.939 6.584-2.012c-.912-3.128-4.204-4.937-7.273-3.999z"/><path fill="#BF2626" d="M56.495 33.507l2.917 9.54c2.162 7.074-1.8 14.562-8.805 16.704-7.006 2.141-14.478-1.85-16.628-8.885l-2.93-9.58"/><path fill="#D33131" d="M31.05 41.286l2.922 9.557c2.154 7.047 9.688 11.031 16.715 8.883a13.578 13.578 0 0 0 3.583-1.715l-.235-.77c-3.12-10.205-12.8-16.589-22.985-15.955z"/><path fill="#D33131" d="M56.899 33.383l2.922 9.558c2.154 7.046-1.837 14.554-8.882 16.708a13.642 13.642 0 0 1-3.939.584l-.235-.77C43.645 49.26 48.078 38.56 56.9 33.384z"/></g><g><path fill="#FFF" d="M64.347 53.783c-1.775 0-3.22-1.455-3.22-3.243V26.056c0-1.788 1.445-3.243 3.22-3.243 1.775 0 3.22 1.455 3.22 3.243v24.443c0 1.787-1.445 3.284-3.22 3.284z"/><path fill="#FFF" d="M48.947 38.277c0-1.787 1.445-3.242 3.22-3.242h24.276c1.776 0 3.22 1.455 3.22 3.242 0 1.788-1.444 3.243-3.22 3.243H52.168c-1.776.041-3.22-1.455-3.22-3.243z"/><path fill="#FFF" d="M53.448 27.344a3.2 3.2 0 0 1 4.582 0l17.175 17.293a3.253 3.253 0 0 1 0 4.614 3.2 3.2 0 0 1-4.583 0L53.448 31.958c-1.239-1.288-1.239-3.367 0-4.614z"/><path fill="#FFF" d="M75.205 27.344a3.253 3.253 0 0 1 0 4.614L58.03 49.21a3.2 3.2 0 0 1-4.582 0 3.253 3.253 0 0 1 0-4.614l17.174-17.252c1.239-1.288 3.303-1.288 4.583 0z"/><path fill="#FFE600" d="M68.806 38.277c0 2.48-1.997 4.49-4.46 4.49-2.462 0-4.458-2.01-4.458-4.49 0-2.48 1.996-4.49 4.459-4.49 2.462 0 4.459 2.01 4.459 4.49z"/></g><path fill="#8EE000" d="M40.618 56.826h3.249v74.686h-3.249zm10.237 29.149l3.19-.62 8.829 45.423-3.19.62zm-5.363-29.149h3.249v74.686h-3.249z"/><path fill="#8EE000" d="M50.366 56.826l2.984.16 1.89 75.338-2.984-.16z"/><path fill="#7AC70C" d="M43.055 56.826h3.249v74.686h-3.249zm4.874 0h3.249v74.686h-3.249zm5.686 28.414h3.249v46.273h-3.249zm-10.947.72l-3.069-.015-3.468 46.47 3.069.015z"/><g><path fill="#F43D3D" d="M47.564 48.46l.138-.026 1.935-.376 12.807-2.49c.7 3.596-1.596 7.037-5.051 7.709l-.139.027-7.279 1.415-7.509 1.46c-.69-3.55 1.597-7.038 5.098-7.718z"/><path fill="#D33131" d="M51.4 49.637l-.139.027-1.939.377-12.834 2.495c.698 3.595 4.122 5.925 7.585 5.252l.138-.027 7.249-1.409 7.525-1.463c-.644-3.557-4.076-5.934-7.585-5.252z"/><path fill="#F43D3D" d="M63.896 50.571l2.112 10.868c1.567 8.058-3.698 15.867-11.706 17.424-8.008 1.557-15.814-3.712-17.372-11.724l-2.12-10.914"/><path fill="#D33131" d="M34.809 56.225l2.116 10.887c1.56 8.027 9.436 13.295 17.47 11.733a15.17 15.17 0 0 0 4.168-1.48l-.17-.877C56.132 64.863 46.16 56.7 34.808 56.225z"/><path fill="#D33131" d="M64.358 50.482l2.116 10.887c1.56 8.027-3.739 15.855-11.792 17.42a15.24 15.24 0 0 1-4.43.19l-.17-.876c-2.26-11.625 3.901-22.924 14.276-27.621z"/></g><g><path fill="#FFF" d="M33.542 49.054c-1.597 0-2.898-1.31-2.898-2.918V24.1c0-1.609 1.3-2.918 2.898-2.918s2.898 1.31 2.898 2.918v21.999c0 1.608-1.3 2.955-2.898 2.955z"/><path fill="#FFF" d="M19.683 35.1c0-1.61 1.3-2.919 2.898-2.919h21.848c1.598 0 2.898 1.31 2.898 2.918 0 1.61-1.3 2.919-2.898 2.919H22.581c-1.598.037-2.898-1.31-2.898-2.919z"/><path fill="#FFF" d="M23.733 25.26a2.88 2.88 0 0 1 4.124 0l15.457 15.564a2.927 2.927 0 0 1 0 4.152 2.88 2.88 0 0 1-4.124 0L23.733 29.413c-1.115-1.16-1.115-3.03 0-4.153z"/><path fill="#FFF" d="M43.314 25.26a2.927 2.927 0 0 1 0 4.153L27.857 44.939a2.88 2.88 0 0 1-4.124 0 2.927 2.927 0 0 1 0-4.153L39.19 25.26c1.115-1.16 2.973-1.16 4.124 0z"/><path fill="#FFE600" d="M37.555 35.1c0 2.23-1.796 4.04-4.013 4.04-2.216 0-4.013-1.81-4.013-4.04 0-2.232 1.797-4.041 4.013-4.041 2.217 0 4.013 1.809 4.013 4.04z"/></g><g><path fill="#70AF0C" d="M46.252 89.417l2.283-1.66-27.12-32.902-2.283 1.659z"/><path fill="#D33131" d="M11.385 45.235l.114-.083 1.594-1.158 10.556-7.67c2.153 2.964 1.527 7.053-1.32 9.122l-.115.083-5.999 4.359-6.189 4.496c-2.124-2.925-1.527-7.052 1.359-9.149z"/><path fill="#F43D3D" d="M15.359 44.68l-.115.083-1.598 1.16L3.068 53.61c2.154 2.964 6.24 3.628 9.095 1.555l.114-.083 5.974-4.34 6.202-4.506c-2.087-2.953-6.203-3.656-9.094-1.555z"/><path fill="#D33131" d="M27.079 40.246l6.507 8.956c4.825 6.642 3.354 15.944-3.246 20.739s-15.901 3.32-20.699-3.284l-6.535-8.994"/><path fill="#70AF0C" d="M35.591 78.369l-5.33.666 2.28-4.863zm4.953 2.814l5.33-.665-2.28 4.863z"/><path fill="#F43D3D" d="M3.106 57.663l6.52 8.972c4.806 6.616 14.17 8.061 20.79 3.25a15.17 15.17 0 0 0 3.153-3.103l-.525-.722c-6.961-9.581-19.449-12.765-29.938-8.397z"/><path fill="#F43D3D" d="M27.46 39.97l6.518 8.972c4.807 6.615 3.313 15.95-3.325 20.772a15.24 15.24 0 0 1-3.934 2.045l-.524-.723c-6.961-9.58-6.153-22.425 1.264-31.067z"/></g><g transform="translate(35.744 77.933)"><path fill="#FFE7AB" d="M3.317.19h17.738a3.166 3.166 0 0 1 3.11 3.753c-.831 4.407-1.247 7.041-1.247 7.904 0 .56.176 1.426.527 2.596a3.166 3.166 0 0 1-3.032 4.077H3.627a3.166 3.166 0 0 1-3.025-4.1c.505-1.634.757-3.03.757-4.191 0-1.395-.364-3.404-1.092-6.026A3.166 3.166 0 0 1 3.317.19z"/><rect width="23.809" height="2.223" x=".07" y="8.891" fill="#F4D590" rx="1.111"/></g><g><path fill="#8EE000" d="M32.804 64.374L17.394 48.02c-1.318 4.268-.352 9.07 2.927 12.587a13.186 13.186 0 0 0 12.483 3.767z"/><path fill="#7AC70C" d="M17.564 48.468L32.97 64.82c1.318-4.267.389-9.104-2.926-12.586-3.279-3.481-8.087-4.771-12.479-3.767z"/></g><g><path fill="#8EE000" d="M34.506 87.811l7.895-20.78c-4.372.684-8.232 3.628-9.944 8.065a12.99 12.99 0 0 0 2.05 12.715z"/><path fill="#7AC70C" d="M42.076 67.377L34.18 88.152c4.372-.683 8.278-3.609 9.944-8.063 1.681-4.422.749-9.25-2.048-12.712z"/></g><g><path fill="#FFF" d="M33.478 78.95c-1.775 0-3.22-1.455-3.22-3.243V51.223c0-1.788 1.445-3.243 3.22-3.243 1.775 0 3.22 1.455 3.22 3.243v24.443c0 1.787-1.445 3.284-3.22 3.284z"/><path fill="#FFF" d="M18.078 63.444c0-1.787 1.445-3.242 3.22-3.242h24.276c1.776 0 3.22 1.455 3.22 3.242 0 1.788-1.444 3.243-3.22 3.243H21.3c-1.776.041-3.22-1.455-3.22-3.243z"/><path fill="#FFF" d="M22.579 52.511a3.2 3.2 0 0 1 4.582 0l17.175 17.293a3.253 3.253 0 0 1 0 4.614 3.2 3.2 0 0 1-4.583 0L22.58 57.125c-1.239-1.288-1.239-3.367 0-4.614z"/><path fill="#FFF" d="M44.336 52.511a3.253 3.253 0 0 1 0 4.614L27.16 74.377a3.2 3.2 0 0 1-4.582 0 3.253 3.253 0 0 1 0-4.614L39.753 52.51c1.239-1.288 3.303-1.288 4.583 0z"/><path fill="#FFE600" d="M37.937 63.444c0 2.48-1.997 4.49-4.46 4.49-2.462 0-4.458-2.01-4.458-4.49 0-2.48 1.996-4.49 4.459-4.49 2.462 0 4.459 2.01 4.459 4.49z"/></g><g><path fill="#8EE000" d="M70.289 85.784L53.384 67.71a14.269 14.269 0 0 0 3.208 13.912 14.396 14.396 0 0 0 13.697 4.16z"/><path fill="#7AC70C" d="M52.948 67.586L69.846 85.66c1.448-4.718.43-10.064-3.206-13.912-3.597-3.847-8.873-5.272-13.692-4.16z"/></g><rect width="24.371" height="17.048" x="56.865" y="57.638" fill="#FFD3D3" rx="4.644" transform="rotate(14 69.05 66.162)"/><rect width="17.059" height="2.435" x="60.927" y="61.697" fill="#FF9797" rx="1.218" transform="rotate(14 69.456 62.915)"/><rect width="8.936" height="2.435" x="59.302" y="65.756" fill="#FF9797" rx="1.218" transform="rotate(14 63.77 66.974)"/></g></g></g></svg>