<svg xmlns="http://www.w3.org/2000/svg" xmlns:xlink="http://www.w3.org/1999/xlink" width="150" height="150"><defs><rect id="a" width="150" height="150" rx="75"/></defs><g fill="none" fill-rule="evenodd"><mask id="b" fill="#fff"><use xlink:href="#a"/></mask><use fill="#004F74" xlink:href="#a"/><g mask="url(#b)"><g transform="translate(7.988 18.64)"><ellipse cx="61.99" cy="54.01" stroke="#0F5A7E" stroke-width="5.754" rx="54.03" ry="53.954"/><path stroke="#0F5A7E" stroke-width="5.754" d="M61.99.056V107.07M8.358 53.613h107.264"/><path fill="#0F5A7E" fill-rule="nonzero" d="M39.58 90.455c0 7.253-5.87 13.116-13.134 13.116-7.263 0-13.134-5.863-13.134-13.116"/><path stroke="#0F5A7E" stroke-width="5.754" d="M24.08 15.756L99.9 91.47m0-75.714L24.08 91.47"/><path fill="#0F5A7E" fill-rule="nonzero" d="M64.279 51.228c-.597-.596-1.493-.894-2.289-.894s-1.691.298-2.289.894L0 110.846v3.776c0 1.49.299 2.98.796 4.272L61.99 57.786l49.85 48.49c1.195 1.192 3.185 1.192 4.379 0 1.194-1.193 1.194-3.18 0-4.373l-51.94-50.675z"/><ellipse cx="61.99" cy="54.01" fill="#0F5A7E" fill-rule="nonzero" rx="13.333" ry="13.315"/><path fill="#0F5A7E" fill-rule="nonzero" d="M61.99 46.061l2.289 4.77 5.273.795-3.781 3.676.896 5.167-4.677-2.484-4.677 2.484.896-5.167-3.781-3.676 5.273-.795zm13.134-34.478c0 7.253-5.87 13.115-13.134 13.115s-13.134-5.862-13.134-13.115M37.612 27.878c0 7.253-5.87 13.116-13.134 13.116S11.343 35.13 11.343 27.878M0 63.018c0 7.253 5.87 13.116 13.134 13.116S26.27 70.27 26.27 63.018m60.995-35.14c0 7.253 5.87 13.116 13.134 13.116s13.134-5.863 13.134-13.116m-10.845 35.473c0 7.253 5.87 13.115 13.134 13.115s13.134-5.862 13.134-13.115m-10.348 36.863c0 4.471-3.682 8.148-8.16 8.148h-3.183c-4.478 0-8.16-3.677-8.16-8.148"/></g></g><g fill-rule="nonzero" mask="url(#b)"><g><path fill="#C6C6C6" d="M105.534 64.38c-.48 0-.96-.478-.96-.954V24.088c0-.477.48-.954.96-.954.479 0 .958.477.958.954v39.338c0 .476-.36.953-.958.953z"/><path fill="#F43D3D" d="M56.513 80.591l49.021-37.192-29.365 37.192"/><path fill="#F43D3D" d="M76.049 69.863L58.79 79.757l-2.277.834 2.996 10.252 86.416 1.788 3.476-7.51-.12-7.51-59.209-9.536z"/><path fill="#D33131" d="M149.401 80.71H56.513v55.431h92.888z"/><path fill="#F43D3D" d="M108.41 24.445l22.293 5.245c.6.12.6.954 0 1.073l-22.293 5.245c-.36.12-.6-.119-.6-.476v-10.49c-.12-.477.24-.716.6-.597zm6.952 56.146H95.705l9.829-37.192z"/><path fill="#FFD300" d="M95.705 80.591H76.049l29.485-37.192z"/><path fill="#FFD300" d="M115.362 80.591h19.656l-29.484-37.192z"/><path fill="#F43D3D" d="M134.898 80.591h14.503v-3.934l-43.867-33.258z"/><path fill="#FFC300" d="M76.169 80.591h19.536v55.55H76.169zm39.193 0h19.536v55.55h-19.536z"/><path fill="#FFD300" d="M95.825 80.591c0 5.364-4.434 9.775-9.828 9.775-5.393 0-9.828-4.41-9.828-9.775"/><path fill="#F43D3D" d="M76.169 80.591c0 5.364-4.435 9.775-9.828 9.775-5.394 0-9.828-4.41-9.828-9.775m58.849 0c0 5.364-4.435 9.775-9.828 9.775-5.394 0-9.829-4.41-9.829-9.775"/><path fill="#FFD300" d="M135.018 80.591c0 5.364-4.435 9.775-9.828 9.775-5.394 0-9.828-4.41-9.828-9.775"/><path fill="#F43D3D" d="M149.4 80.591h-14.382c0 5.364 4.435 9.775 9.828 9.775 1.678 0 3.236-.358 4.555-1.192v-8.583z"/><path fill="#BA2121" d="M82.162 136.141l23.372-42.676 23.371 42.676z"/><path fill="#F43D3D" d="M128.587 136.64l-23.252-43.62 43.028 43.62z"/><path fill="#F43D3D" d="M82.345 136.64l23.252-43.62-43.028 43.62z"/></g></g><path fill="#864E1B" mask="url(#b)" d="M8.777 135.24H142.11v23.635H8.777z"/></g></svg>